# xmcd CD database file
#
# Track frame offsets:
#	150
#	17795
#	32058
#	47776
#	63928
#	80999
#	101941
#	118976
#	138906
#	153134
#	168645
#	180912
#	192738
#
# Disc length: 2749 seconds
#
# Revision: 0
# Processed by: cddbd v1.5.2PL0 Copyright (c) Steve Scherf et al.
# Submitted via: CDex 1.51
#
DISCID=b70abb0d
DTITLE=Davis Coen - Ill Disposition
DYEAR=2007
DGENRE=Blues
TTITLE0=Busker's Blues
TTITLE1=Something At My Feet
TTITLE2=Freight Train
TTITLE3=Got To Hold Out
TTITLE4=Yes We Can Can
TTITLE5=Two-Timer's Blues
TTITLE6=Mambo Chillun
TTITLE7=Good Conversation
TTITLE8=Kansas City
TTITLE9=Lay Me A Pallet On Your Floor
TTITLE10=Let It Rock
TTITLE11=I'm In Love With You
TTITLE12=Rooster Blues
EXTD=YEAR: 2007
EXTT0=
EXTT1=
EXTT2=
EXTT3=
EXTT4=
EXTT5=
EXTT6=
EXTT7=
EXTT8=
EXTT9=
EXTT10=
EXTT11=
EXTT12=
PLAYORDER=
